<mxfile host="app.diagrams.net" agent="Mozilla/5.0 (Windows NT 10.0; Win64; x64) AppleWebKit/537.36 (KHTML, like Gecko) Chrome/131.0.0.0 Safari/537.36 Edg/131.0.0.0" version="26.0.4">
  <diagram name="Page-1" id="KICizQ0xmFcay248bjg3">
    <mxGraphModel dx="2722" dy="2196" grid="1" gridSize="10" guides="1" tooltips="1" connect="1" arrows="1" fold="1" page="1" pageScale="1" pageWidth="827" pageHeight="1169" math="0" shadow="0">
      <root>
        <mxCell id="0" />
        <mxCell id="1" parent="0" />
        <mxCell id="8peEFKOhnlwPGsy8Juil-1" value="" style="edgeStyle=orthogonalEdgeStyle;rounded=0;orthogonalLoop=1;jettySize=auto;html=1;" edge="1" parent="1" source="8peEFKOhnlwPGsy8Juil-2" target="8peEFKOhnlwPGsy8Juil-3">
          <mxGeometry relative="1" as="geometry" />
        </mxCell>
        <mxCell id="8peEFKOhnlwPGsy8Juil-2" value="Root" style="rounded=0;whiteSpace=wrap;html=1;" vertex="1" parent="1">
          <mxGeometry x="340" y="-150" width="100" height="30" as="geometry" />
        </mxCell>
        <mxCell id="8peEFKOhnlwPGsy8Juil-3" value="Inventory Management System" style="rounded=0;whiteSpace=wrap;html=1;" vertex="1" parent="1">
          <mxGeometry x="330" y="-90" width="120" height="60" as="geometry" />
        </mxCell>
        <mxCell id="8peEFKOhnlwPGsy8Juil-4" value="Purchase Order" style="rounded=0;whiteSpace=wrap;html=1;" vertex="1" parent="1">
          <mxGeometry x="-10" y="120.75999999999999" width="120" height="40" as="geometry" />
        </mxCell>
        <mxCell id="8peEFKOhnlwPGsy8Juil-5" value="Report Preparation" style="rounded=0;whiteSpace=wrap;html=1;fontSize=13;" vertex="1" parent="1">
          <mxGeometry x="972.75" y="108.75999999999999" width="120" height="40" as="geometry" />
        </mxCell>
        <mxCell id="8peEFKOhnlwPGsy8Juil-6" value="Real Time Stock Update" style="rounded=0;whiteSpace=wrap;html=1;" vertex="1" parent="1">
          <mxGeometry x="965.25" y="510" width="120" height="40" as="geometry" />
        </mxCell>
        <mxCell id="8peEFKOhnlwPGsy8Juil-7" value="Dispatch Order" style="rounded=0;whiteSpace=wrap;html=1;" vertex="1" parent="1">
          <mxGeometry x="439" y="122.5" width="120" height="40" as="geometry" />
        </mxCell>
        <mxCell id="8peEFKOhnlwPGsy8Juil-8" value="Payment" style="rounded=0;whiteSpace=wrap;html=1;" vertex="1" parent="1">
          <mxGeometry x="310" y="507.5" width="120" height="40" as="geometry" />
        </mxCell>
        <mxCell id="8peEFKOhnlwPGsy8Juil-9" value="" style="endArrow=classic;html=1;rounded=0;exitX=0;exitY=0.5;exitDx=0;exitDy=0;entryX=0.75;entryY=0;entryDx=0;entryDy=0;" edge="1" parent="1" source="8peEFKOhnlwPGsy8Juil-3" target="8peEFKOhnlwPGsy8Juil-4">
          <mxGeometry width="50" height="50" relative="1" as="geometry">
            <mxPoint x="200" y="250" as="sourcePoint" />
            <mxPoint x="250" y="200" as="targetPoint" />
          </mxGeometry>
        </mxCell>
        <mxCell id="8peEFKOhnlwPGsy8Juil-10" value="Order Placement" style="rounded=0;whiteSpace=wrap;html=1;" vertex="1" parent="1">
          <mxGeometry x="-305.5" y="365" width="170" height="40" as="geometry" />
        </mxCell>
        <mxCell id="8peEFKOhnlwPGsy8Juil-11" value="Processing Order Request by Customer" style="rounded=0;whiteSpace=wrap;html=1;" vertex="1" parent="1">
          <mxGeometry x="-481.64" y="565" width="140" height="40" as="geometry" />
        </mxCell>
        <mxCell id="8peEFKOhnlwPGsy8Juil-12" value="Checking Product Availability" style="rounded=0;whiteSpace=wrap;html=1;" vertex="1" parent="1">
          <mxGeometry x="-188.5" y="555" width="140" height="40" as="geometry" />
        </mxCell>
        <mxCell id="8peEFKOhnlwPGsy8Juil-13" value="Avaibility Of Stock" style="rounded=0;whiteSpace=wrap;html=1;" vertex="1" parent="1">
          <mxGeometry x="-296.64" y="755" width="140" height="40" as="geometry" />
        </mxCell>
        <mxCell id="8peEFKOhnlwPGsy8Juil-14" value="" style="endArrow=classic;html=1;rounded=0;exitX=0.368;exitY=1.021;exitDx=0;exitDy=0;entryX=0.5;entryY=0;entryDx=0;entryDy=0;exitPerimeter=0;" edge="1" parent="1" source="8peEFKOhnlwPGsy8Juil-12" target="8peEFKOhnlwPGsy8Juil-13">
          <mxGeometry width="50" height="50" relative="1" as="geometry">
            <mxPoint x="-118.5" y="673" as="sourcePoint" />
            <mxPoint x="-405.5" y="655" as="targetPoint" />
          </mxGeometry>
        </mxCell>
        <mxCell id="8peEFKOhnlwPGsy8Juil-15" value="" style="endArrow=classic;html=1;rounded=0;entryX=0.43;entryY=-0.018;entryDx=0;entryDy=0;entryPerimeter=0;exitX=0.5;exitY=1;exitDx=0;exitDy=0;" edge="1" parent="1" source="8peEFKOhnlwPGsy8Juil-12">
          <mxGeometry width="50" height="50" relative="1" as="geometry">
            <mxPoint x="-118.5" y="673" as="sourcePoint" />
            <mxPoint x="-39.5" y="754" as="targetPoint" />
          </mxGeometry>
        </mxCell>
        <mxCell id="8peEFKOhnlwPGsy8Juil-18" value="" style="endArrow=classic;html=1;rounded=0;exitX=0.563;exitY=1.008;exitDx=0;exitDy=0;exitPerimeter=0;entryX=0.593;entryY=0.042;entryDx=0;entryDy=0;entryPerimeter=0;" edge="1" parent="1" source="8peEFKOhnlwPGsy8Juil-10" target="8peEFKOhnlwPGsy8Juil-12">
          <mxGeometry width="50" height="50" relative="1" as="geometry">
            <mxPoint x="-155.5" y="565" as="sourcePoint" />
            <mxPoint x="-105.5" y="515" as="targetPoint" />
          </mxGeometry>
        </mxCell>
        <mxCell id="8peEFKOhnlwPGsy8Juil-19" value="" style="endArrow=classic;html=1;rounded=0;exitX=0.376;exitY=1.01;exitDx=0;exitDy=0;exitPerimeter=0;entryX=0.617;entryY=-0.038;entryDx=0;entryDy=0;entryPerimeter=0;" edge="1" parent="1" source="8peEFKOhnlwPGsy8Juil-10" target="8peEFKOhnlwPGsy8Juil-11">
          <mxGeometry width="50" height="50" relative="1" as="geometry">
            <mxPoint x="-241.5" y="405" as="sourcePoint" />
            <mxPoint x="-426.29999999999995" y="470.99" as="targetPoint" />
          </mxGeometry>
        </mxCell>
        <mxCell id="8peEFKOhnlwPGsy8Juil-22" value="" style="endArrow=classic;html=1;rounded=0;startArrow=oval;startFill=0;" edge="1" parent="1">
          <mxGeometry width="50" height="50" relative="1" as="geometry">
            <mxPoint x="-295.5" y="435" as="sourcePoint" />
            <mxPoint x="-355.5" y="495" as="targetPoint" />
          </mxGeometry>
        </mxCell>
        <mxCell id="8peEFKOhnlwPGsy8Juil-23" value="Product Id" style="text;html=1;align=center;verticalAlign=middle;whiteSpace=wrap;rounded=0;" vertex="1" parent="1">
          <mxGeometry x="-375.5" y="435" width="60" height="30" as="geometry" />
        </mxCell>
        <mxCell id="8peEFKOhnlwPGsy8Juil-26" value="" style="endArrow=classic;html=1;rounded=0;startArrow=oval;startFill=0;entryX=1;entryY=1;entryDx=0;entryDy=0;" edge="1" parent="1">
          <mxGeometry width="50" height="50" relative="1" as="geometry">
            <mxPoint x="-175.5" y="625" as="sourcePoint" />
            <mxPoint x="-200.5" y="675" as="targetPoint" />
          </mxGeometry>
        </mxCell>
        <mxCell id="8peEFKOhnlwPGsy8Juil-27" value="Product Id" style="text;html=1;align=center;verticalAlign=middle;whiteSpace=wrap;rounded=0;" vertex="1" parent="1">
          <mxGeometry x="-245.5" y="625" width="60" height="30" as="geometry" />
        </mxCell>
        <mxCell id="8peEFKOhnlwPGsy8Juil-28" value="" style="endArrow=classic;html=1;rounded=0;startArrow=oval;startFill=0;" edge="1" parent="1">
          <mxGeometry width="50" height="50" relative="1" as="geometry">
            <mxPoint x="-205.5" y="680" as="sourcePoint" />
            <mxPoint x="-230.5" y="730" as="targetPoint" />
          </mxGeometry>
        </mxCell>
        <mxCell id="8peEFKOhnlwPGsy8Juil-29" value="Purchase Id" style="text;html=1;align=center;verticalAlign=middle;whiteSpace=wrap;rounded=0;" vertex="1" parent="1">
          <mxGeometry x="-267.64" y="685" width="60" height="30" as="geometry" />
        </mxCell>
        <mxCell id="8peEFKOhnlwPGsy8Juil-32" value="" style="endArrow=classic;html=1;rounded=0;strokeColor=none;startArrow=oval;startFill=0;" edge="1" parent="1">
          <mxGeometry width="50" height="50" relative="1" as="geometry">
            <mxPoint x="-145.5" y="455" as="sourcePoint" />
            <mxPoint x="-105.5" y="505" as="targetPoint" />
          </mxGeometry>
        </mxCell>
        <mxCell id="8peEFKOhnlwPGsy8Juil-33" value="" style="endArrow=classic;html=1;rounded=0;startArrow=oval;startFill=0;" edge="1" parent="1">
          <mxGeometry width="50" height="50" relative="1" as="geometry">
            <mxPoint x="-160.5" y="445" as="sourcePoint" />
            <mxPoint x="-115.5" y="515" as="targetPoint" />
          </mxGeometry>
        </mxCell>
        <mxCell id="8peEFKOhnlwPGsy8Juil-34" value="Order" style="text;html=1;align=center;verticalAlign=middle;whiteSpace=wrap;rounded=0;" vertex="1" parent="1">
          <mxGeometry x="-135.5" y="455" width="60" height="30" as="geometry" />
        </mxCell>
        <mxCell id="8peEFKOhnlwPGsy8Juil-35" value="" style="endArrow=classic;html=1;rounded=0;startArrow=oval;startFill=0;" edge="1" parent="1">
          <mxGeometry width="50" height="50" relative="1" as="geometry">
            <mxPoint x="-302.64" y="515" as="sourcePoint" />
            <mxPoint x="-252.64" y="465" as="targetPoint" />
          </mxGeometry>
        </mxCell>
        <mxCell id="8peEFKOhnlwPGsy8Juil-36" value="Order id" style="text;html=1;align=center;verticalAlign=middle;whiteSpace=wrap;rounded=0;" vertex="1" parent="1">
          <mxGeometry x="-285.5" y="495" width="60" height="30" as="geometry" />
        </mxCell>
        <mxCell id="8peEFKOhnlwPGsy8Juil-37" value="" style="endArrow=classic;html=1;rounded=0;startArrow=oval;startFill=0;" edge="1" parent="1">
          <mxGeometry width="50" height="50" relative="1" as="geometry">
            <mxPoint x="-115.5" y="635" as="sourcePoint" />
            <mxPoint x="-85.5" y="695" as="targetPoint" />
          </mxGeometry>
        </mxCell>
        <mxCell id="8peEFKOhnlwPGsy8Juil-38" value="Product Id" style="text;html=1;align=center;verticalAlign=middle;whiteSpace=wrap;rounded=0;" vertex="1" parent="1">
          <mxGeometry x="-156.64" y="655" width="60" height="30" as="geometry" />
        </mxCell>
        <mxCell id="8peEFKOhnlwPGsy8Juil-39" value="" style="endArrow=classic;html=1;rounded=0;startArrow=oval;startFill=0;" edge="1" parent="1">
          <mxGeometry width="50" height="50" relative="1" as="geometry">
            <mxPoint x="-25.5" y="715" as="sourcePoint" />
            <mxPoint x="-75.5" y="635" as="targetPoint" />
          </mxGeometry>
        </mxCell>
        <mxCell id="8peEFKOhnlwPGsy8Juil-41" value="Low on Stock" style="rounded=0;whiteSpace=wrap;html=1;" vertex="1" parent="1">
          <mxGeometry x="-65.5" y="755" width="130" height="40" as="geometry" />
        </mxCell>
        <mxCell id="8peEFKOhnlwPGsy8Juil-42" value="Low Stock" style="text;html=1;align=center;verticalAlign=middle;resizable=0;points=[];autosize=1;strokeColor=none;fillColor=none;" vertex="1" parent="1">
          <mxGeometry x="-48.5" y="665" width="80" height="30" as="geometry" />
        </mxCell>
        <mxCell id="8peEFKOhnlwPGsy8Juil-44" value="Purchase Id" style="text;html=1;align=center;verticalAlign=middle;whiteSpace=wrap;rounded=0;" vertex="1" parent="1">
          <mxGeometry x="-166.64" y="230" width="80" height="30" as="geometry" />
        </mxCell>
        <mxCell id="8peEFKOhnlwPGsy8Juil-45" value="" style="endArrow=classic;html=1;rounded=0;startArrow=oval;startFill=0;" edge="1" parent="1">
          <mxGeometry width="50" height="50" relative="1" as="geometry">
            <mxPoint x="-70" y="240" as="sourcePoint" />
            <mxPoint x="-130" y="280" as="targetPoint" />
          </mxGeometry>
        </mxCell>
        <mxCell id="8peEFKOhnlwPGsy8Juil-46" value="" style="endArrow=classic;html=1;rounded=0;startArrow=oval;startFill=1;" edge="1" parent="1">
          <mxGeometry width="50" height="50" relative="1" as="geometry">
            <mxPoint x="-108.5" y="310" as="sourcePoint" />
            <mxPoint x="-48.5" y="270" as="targetPoint" />
          </mxGeometry>
        </mxCell>
        <mxCell id="8peEFKOhnlwPGsy8Juil-47" value="EOF" style="text;html=1;align=center;verticalAlign=middle;whiteSpace=wrap;rounded=0;" vertex="1" parent="1">
          <mxGeometry x="-90" y="287.5" width="60" height="30" as="geometry" />
        </mxCell>
        <mxCell id="8peEFKOhnlwPGsy8Juil-48" value="Supplier Interactions&amp;nbsp;" style="rounded=0;whiteSpace=wrap;html=1;" vertex="1" parent="1">
          <mxGeometry x="40.000000000000114" y="347.5" width="140" height="40" as="geometry" />
        </mxCell>
        <mxCell id="8peEFKOhnlwPGsy8Juil-49" value="Managing Order Fullfillment" style="rounded=0;whiteSpace=wrap;html=1;" vertex="1" parent="1">
          <mxGeometry x="-19.999999999999886" y="507.5" width="130" height="40" as="geometry" />
        </mxCell>
        <mxCell id="8peEFKOhnlwPGsy8Juil-50" value="Updating Inventory Stocks" style="rounded=0;whiteSpace=wrap;html=1;" vertex="1" parent="1">
          <mxGeometry x="140.0000000000001" y="507.5" width="160" height="40" as="geometry" />
        </mxCell>
        <mxCell id="8peEFKOhnlwPGsy8Juil-51" value="" style="endArrow=classic;html=1;rounded=0;exitX=0.411;exitY=1.002;exitDx=0;exitDy=0;entryX=0.322;entryY=-0.013;entryDx=0;entryDy=0;entryPerimeter=0;exitPerimeter=0;" edge="1" parent="1" source="8peEFKOhnlwPGsy8Juil-48" target="8peEFKOhnlwPGsy8Juil-49">
          <mxGeometry width="50" height="50" relative="1" as="geometry">
            <mxPoint x="200.0000000000001" y="-102.5" as="sourcePoint" />
            <mxPoint x="250.0000000000001" y="-152.5" as="targetPoint" />
          </mxGeometry>
        </mxCell>
        <mxCell id="8peEFKOhnlwPGsy8Juil-52" value="" style="endArrow=classic;html=1;rounded=0;exitX=0.607;exitY=0.986;exitDx=0;exitDy=0;exitPerimeter=0;entryX=0.313;entryY=0;entryDx=0;entryDy=0;entryPerimeter=0;" edge="1" parent="1" source="8peEFKOhnlwPGsy8Juil-48" target="8peEFKOhnlwPGsy8Juil-50">
          <mxGeometry width="50" height="50" relative="1" as="geometry">
            <mxPoint x="20.000000000000114" y="-152.5" as="sourcePoint" />
            <mxPoint x="70.00000000000011" y="-202.5" as="targetPoint" />
          </mxGeometry>
        </mxCell>
        <mxCell id="8peEFKOhnlwPGsy8Juil-53" value="" style="endArrow=classic;html=1;rounded=0;startArrow=oval;startFill=0;" edge="1" parent="1">
          <mxGeometry width="50" height="50" relative="1" as="geometry">
            <mxPoint x="70.00000000000011" y="407.5" as="sourcePoint" />
            <mxPoint x="20.000000000000114" y="487.5" as="targetPoint" />
          </mxGeometry>
        </mxCell>
        <mxCell id="8peEFKOhnlwPGsy8Juil-54" value="Order Info" style="text;html=1;align=center;verticalAlign=middle;whiteSpace=wrap;rounded=0;" vertex="1" parent="1">
          <mxGeometry x="-9.999999999999886" y="417.5" width="60" height="30" as="geometry" />
        </mxCell>
        <mxCell id="8peEFKOhnlwPGsy8Juil-55" value="Order Info" style="text;html=1;align=center;verticalAlign=middle;whiteSpace=wrap;rounded=0;" vertex="1" parent="1">
          <mxGeometry x="180.0000000000001" y="407.5" width="60" height="30" as="geometry" />
        </mxCell>
        <mxCell id="8peEFKOhnlwPGsy8Juil-56" value="" style="endArrow=classic;html=1;rounded=0;startArrow=oval;startFill=0;" edge="1" parent="1">
          <mxGeometry width="50" height="50" relative="1" as="geometry">
            <mxPoint x="150.0000000000001" y="407.5" as="sourcePoint" />
            <mxPoint x="200.0000000000001" y="487.5" as="targetPoint" />
          </mxGeometry>
        </mxCell>
        <mxCell id="8peEFKOhnlwPGsy8Juil-57" value="" style="endArrow=classic;html=1;rounded=0;startArrow=oval;startFill=0;" edge="1" parent="1">
          <mxGeometry width="50" height="50" relative="1" as="geometry">
            <mxPoint x="50.000000000000114" y="487.5" as="sourcePoint" />
            <mxPoint x="90.00000000000011" y="417.5" as="targetPoint" />
          </mxGeometry>
        </mxCell>
        <mxCell id="8peEFKOhnlwPGsy8Juil-58" value="Order Details" style="text;html=1;align=center;verticalAlign=middle;whiteSpace=wrap;rounded=0;" vertex="1" parent="1">
          <mxGeometry x="40.000000000000114" y="477.5" width="60" height="30" as="geometry" />
        </mxCell>
        <mxCell id="8peEFKOhnlwPGsy8Juil-59" value="" style="endArrow=classic;html=1;rounded=0;startArrow=oval;startFill=0;" edge="1" parent="1">
          <mxGeometry width="50" height="50" relative="1" as="geometry">
            <mxPoint x="160.0000000000001" y="487.5" as="sourcePoint" />
            <mxPoint x="120.00000000000011" y="417.5" as="targetPoint" />
          </mxGeometry>
        </mxCell>
        <mxCell id="8peEFKOhnlwPGsy8Juil-60" value="Updated Stock Data" style="text;html=1;align=center;verticalAlign=middle;whiteSpace=wrap;rounded=0;" vertex="1" parent="1">
          <mxGeometry x="80.00000000000011" y="447.5" width="70" height="30" as="geometry" />
        </mxCell>
        <mxCell id="8peEFKOhnlwPGsy8Juil-62" value="" style="endArrow=classic;html=1;rounded=0;exitX=0.603;exitY=0.994;exitDx=0;exitDy=0;entryX=0.5;entryY=0;entryDx=0;entryDy=0;exitPerimeter=0;" edge="1" parent="1" source="8peEFKOhnlwPGsy8Juil-4" target="8peEFKOhnlwPGsy8Juil-48">
          <mxGeometry width="50" height="50" relative="1" as="geometry">
            <mxPoint x="-75" y="210.00000000000023" as="sourcePoint" />
            <mxPoint x="-115" y="270" as="targetPoint" />
          </mxGeometry>
        </mxCell>
        <mxCell id="8peEFKOhnlwPGsy8Juil-63" value="" style="endArrow=classic;html=1;rounded=0;startArrow=oval;startFill=0;entryX=1;entryY=1;entryDx=0;entryDy=0;" edge="1" parent="1" target="8peEFKOhnlwPGsy8Juil-67">
          <mxGeometry width="50" height="50" relative="1" as="geometry">
            <mxPoint x="40" y="210" as="sourcePoint" />
            <mxPoint x="50" y="270" as="targetPoint" />
          </mxGeometry>
        </mxCell>
        <mxCell id="8peEFKOhnlwPGsy8Juil-64" value="Purchase Id" style="text;html=1;align=center;verticalAlign=middle;whiteSpace=wrap;rounded=0;" vertex="1" parent="1">
          <mxGeometry x="5" y="290" width="80" height="30" as="geometry" />
        </mxCell>
        <mxCell id="8peEFKOhnlwPGsy8Juil-65" value="" style="endArrow=classic;html=1;rounded=0;startArrow=oval;startFill=1;" edge="1" parent="1">
          <mxGeometry width="50" height="50" relative="1" as="geometry">
            <mxPoint x="110" y="300" as="sourcePoint" />
            <mxPoint x="80" y="220" as="targetPoint" />
          </mxGeometry>
        </mxCell>
        <mxCell id="8peEFKOhnlwPGsy8Juil-66" value="EOF" style="text;whiteSpace=wrap;html=1;" vertex="1" parent="1">
          <mxGeometry x="100.00000000000006" y="245" width="60" height="40" as="geometry" />
        </mxCell>
        <mxCell id="8peEFKOhnlwPGsy8Juil-67" value="Supplier&amp;nbsp;&lt;div&gt;Info&lt;/div&gt;" style="text;html=1;align=center;verticalAlign=middle;whiteSpace=wrap;rounded=0;" vertex="1" parent="1">
          <mxGeometry x="-29.999999999999886" y="240" width="90" height="30" as="geometry" />
        </mxCell>
        <mxCell id="8peEFKOhnlwPGsy8Juil-68" value="" style="endArrow=classic;html=1;rounded=0;startArrow=oval;startFill=0;" edge="1" parent="1">
          <mxGeometry width="50" height="50" relative="1" as="geometry">
            <mxPoint x="70" y="280" as="sourcePoint" />
            <mxPoint x="90" y="330" as="targetPoint" />
          </mxGeometry>
        </mxCell>
        <mxCell id="8peEFKOhnlwPGsy8Juil-69" value="&lt;font&gt;Purchase Report&lt;/font&gt;" style="rounded=0;whiteSpace=wrap;html=1;fontSize=13;" vertex="1" parent="1">
          <mxGeometry x="972.75" y="237.5" width="150" height="40" as="geometry" />
        </mxCell>
        <mxCell id="8peEFKOhnlwPGsy8Juil-70" value="&lt;span&gt;Collect Purchase Data&amp;nbsp;&lt;/span&gt;" style="rounded=0;whiteSpace=wrap;html=1;fontSize=13;" vertex="1" parent="1">
          <mxGeometry x="989.75" y="407.5" width="140" height="43.76" as="geometry" />
        </mxCell>
        <mxCell id="8peEFKOhnlwPGsy8Juil-71" value="&lt;div&gt;&lt;font&gt;Generate Purchase Report&lt;/font&gt;&lt;/div&gt;" style="rounded=0;whiteSpace=wrap;html=1;fontSize=13;" vertex="1" parent="1">
          <mxGeometry x="1162.75" y="411.26" width="140" height="40" as="geometry" />
        </mxCell>
        <mxCell id="8peEFKOhnlwPGsy8Juil-72" value="Provides Purchase&amp;nbsp;&lt;div&gt;Data&lt;/div&gt;" style="text;html=1;align=center;verticalAlign=middle;resizable=0;points=[];autosize=1;strokeColor=none;fillColor=none;rotation=0;fontSize=13;" vertex="1" parent="1">
          <mxGeometry x="897.75" y="327.5" width="140" height="40" as="geometry" />
        </mxCell>
        <mxCell id="8peEFKOhnlwPGsy8Juil-73" value="" style="endArrow=classic;html=1;rounded=0;startArrow=oval;startFill=0;endFill=1;fontSize=13;" edge="1" parent="1">
          <mxGeometry width="50" height="50" relative="1" as="geometry">
            <mxPoint x="1022.75" y="357.5" as="sourcePoint" />
            <mxPoint x="1032.75" y="307.5" as="targetPoint" />
            <Array as="points" />
          </mxGeometry>
        </mxCell>
        <mxCell id="8peEFKOhnlwPGsy8Juil-74" value="Provides Purchase&amp;nbsp;&lt;div&gt;Report&lt;/div&gt;" style="text;html=1;align=center;verticalAlign=middle;resizable=0;points=[];autosize=1;strokeColor=none;fillColor=none;rotation=0;fontSize=13;" vertex="1" parent="1">
          <mxGeometry x="1137.75" y="312.5" width="140" height="40" as="geometry" />
        </mxCell>
        <mxCell id="8peEFKOhnlwPGsy8Juil-75" value="" style="endArrow=classic;html=1;rounded=0;startArrow=oval;startFill=1;fontSize=13;" edge="1" parent="1">
          <mxGeometry width="50" height="50" relative="1" as="geometry">
            <mxPoint x="1159.75" y="347.5" as="sourcePoint" />
            <mxPoint x="1129.75" y="317.5" as="targetPoint" />
          </mxGeometry>
        </mxCell>
        <mxCell id="8peEFKOhnlwPGsy8Juil-76" value="" style="endArrow=classic;html=1;rounded=0;startArrow=oval;startFill=0;entryX=1.011;entryY=-0.055;entryDx=0;entryDy=0;entryPerimeter=0;fontSize=13;" edge="1" parent="1">
          <mxGeometry width="50" height="50" relative="1" as="geometry">
            <mxPoint x="1002.75" y="207.5" as="sourcePoint" />
            <mxPoint x="1014.0700000000002" y="165.8499999999999" as="targetPoint" />
          </mxGeometry>
        </mxCell>
        <mxCell id="8peEFKOhnlwPGsy8Juil-77" value="Purchase Report" style="text;html=1;align=center;verticalAlign=middle;resizable=0;points=[];autosize=1;strokeColor=none;fillColor=none;rotation=0;fontSize=13;" vertex="1" parent="1">
          <mxGeometry x="892.75" y="173.74" width="120" height="30" as="geometry" />
        </mxCell>
        <mxCell id="8peEFKOhnlwPGsy8Juil-78" value="" style="endArrow=classic;html=1;rounded=0;startArrow=oval;startFill=1;fontSize=13;" edge="1" parent="1">
          <mxGeometry width="50" height="50" relative="1" as="geometry">
            <mxPoint x="1022.75" y="207.5" as="sourcePoint" />
            <mxPoint x="1032.75" y="167.5" as="targetPoint" />
          </mxGeometry>
        </mxCell>
        <mxCell id="8peEFKOhnlwPGsy8Juil-79" value="EOF" style="text;html=1;align=center;verticalAlign=middle;resizable=0;points=[];autosize=1;strokeColor=none;fillColor=none;rotation=0;fontSize=13;" vertex="1" parent="1">
          <mxGeometry x="1022.75" y="177.5" width="50" height="30" as="geometry" />
        </mxCell>
        <mxCell id="8peEFKOhnlwPGsy8Juil-80" value="" style="endArrow=classic;html=1;rounded=0;exitX=0.5;exitY=1;exitDx=0;exitDy=0;entryX=0.25;entryY=0;entryDx=0;entryDy=0;fontSize=13;" edge="1" parent="1" source="8peEFKOhnlwPGsy8Juil-5" target="8peEFKOhnlwPGsy8Juil-69">
          <mxGeometry width="50" height="50" relative="1" as="geometry">
            <mxPoint x="1112.75" y="217.5" as="sourcePoint" />
            <mxPoint x="1162.75" y="167.5" as="targetPoint" />
          </mxGeometry>
        </mxCell>
        <mxCell id="8peEFKOhnlwPGsy8Juil-81" value="" style="endArrow=classic;html=1;rounded=0;exitX=0.5;exitY=1;exitDx=0;exitDy=0;entryX=0.25;entryY=0;entryDx=0;entryDy=0;fontSize=13;" edge="1" parent="1" source="8peEFKOhnlwPGsy8Juil-69" target="8peEFKOhnlwPGsy8Juil-70">
          <mxGeometry width="50" height="50" relative="1" as="geometry">
            <mxPoint x="1072.75" y="557.5" as="sourcePoint" />
            <mxPoint x="1122.75" y="507.5" as="targetPoint" />
          </mxGeometry>
        </mxCell>
        <mxCell id="8peEFKOhnlwPGsy8Juil-82" value="" style="endArrow=classic;html=1;rounded=0;exitX=0.75;exitY=1;exitDx=0;exitDy=0;entryX=0.25;entryY=0;entryDx=0;entryDy=0;fontSize=13;" edge="1" parent="1" source="8peEFKOhnlwPGsy8Juil-69" target="8peEFKOhnlwPGsy8Juil-71">
          <mxGeometry width="50" height="50" relative="1" as="geometry">
            <mxPoint x="1152.75" y="337.5" as="sourcePoint" />
            <mxPoint x="1202.75" y="287.5" as="targetPoint" />
          </mxGeometry>
        </mxCell>
        <mxCell id="8peEFKOhnlwPGsy8Juil-83" value="&lt;font&gt;Sales Report&lt;/font&gt;" style="rounded=0;whiteSpace=wrap;html=1;fontSize=13;" vertex="1" parent="1">
          <mxGeometry x="1292.75" y="237.5" width="130" height="40" as="geometry" />
        </mxCell>
        <mxCell id="8peEFKOhnlwPGsy8Juil-84" value="&lt;span&gt;Collect Sales Data&amp;nbsp;&lt;/span&gt;" style="rounded=0;whiteSpace=wrap;html=1;fontSize=13;" vertex="1" parent="1">
          <mxGeometry x="1322.75" y="417.5" width="150" height="38" as="geometry" />
        </mxCell>
        <mxCell id="8peEFKOhnlwPGsy8Juil-85" value="&lt;div&gt;&lt;font&gt;Generate Sales Report&lt;/font&gt;&lt;/div&gt;" style="rounded=0;whiteSpace=wrap;html=1;fontSize=13;" vertex="1" parent="1">
          <mxGeometry x="1512.75" y="417.5" width="130" height="40" as="geometry" />
        </mxCell>
        <mxCell id="8peEFKOhnlwPGsy8Juil-86" value="" style="endArrow=classic;html=1;rounded=0;exitX=0.75;exitY=1;exitDx=0;exitDy=0;entryX=0.25;entryY=0;entryDx=0;entryDy=0;fontSize=13;" edge="1" parent="1" source="8peEFKOhnlwPGsy8Juil-83">
          <mxGeometry width="50" height="50" relative="1" as="geometry">
            <mxPoint x="1409.25" y="317.5" as="sourcePoint" />
            <mxPoint x="1555.25" y="417.5" as="targetPoint" />
          </mxGeometry>
        </mxCell>
        <mxCell id="8peEFKOhnlwPGsy8Juil-87" value="" style="endArrow=classic;html=1;rounded=0;exitX=0.5;exitY=1;exitDx=0;exitDy=0;entryX=0.25;entryY=0;entryDx=0;entryDy=0;fontSize=13;" edge="1" parent="1" source="8peEFKOhnlwPGsy8Juil-83" target="8peEFKOhnlwPGsy8Juil-84">
          <mxGeometry width="50" height="50" relative="1" as="geometry">
            <mxPoint x="1355.75" y="307.5" as="sourcePoint" />
            <mxPoint x="1332.75" y="437.5" as="targetPoint" />
          </mxGeometry>
        </mxCell>
        <mxCell id="8peEFKOhnlwPGsy8Juil-88" value="" style="endArrow=classic;html=1;rounded=0;exitX=1;exitY=0.5;exitDx=0;exitDy=0;entryX=0.25;entryY=0;entryDx=0;entryDy=0;fontSize=13;" edge="1" parent="1" source="8peEFKOhnlwPGsy8Juil-5" target="8peEFKOhnlwPGsy8Juil-83">
          <mxGeometry width="50" height="50" relative="1" as="geometry">
            <mxPoint x="1185.75" y="167.5" as="sourcePoint" />
            <mxPoint x="1162.75" y="297.5" as="targetPoint" />
          </mxGeometry>
        </mxCell>
        <mxCell id="8peEFKOhnlwPGsy8Juil-89" value="" style="endArrow=classic;html=1;rounded=0;startArrow=oval;startFill=0;entryX=1.011;entryY=-0.055;entryDx=0;entryDy=0;entryPerimeter=0;fontSize=13;" edge="1" parent="1">
          <mxGeometry width="50" height="50" relative="1" as="geometry">
            <mxPoint x="1231.75" y="197.5" as="sourcePoint" />
            <mxPoint x="1202.75" y="177.5" as="targetPoint" />
          </mxGeometry>
        </mxCell>
        <mxCell id="8peEFKOhnlwPGsy8Juil-90" value="" style="endArrow=classic;html=1;rounded=0;startArrow=oval;startFill=0;endFill=1;fontSize=13;" edge="1" parent="1">
          <mxGeometry width="50" height="50" relative="1" as="geometry">
            <mxPoint x="1352.75" y="367.5" as="sourcePoint" />
            <mxPoint x="1352.75" y="317.5" as="targetPoint" />
            <Array as="points" />
          </mxGeometry>
        </mxCell>
        <mxCell id="8peEFKOhnlwPGsy8Juil-91" value="Provides Sales&lt;div&gt;Data&lt;/div&gt;" style="text;html=1;align=center;verticalAlign=middle;resizable=0;points=[];autosize=1;strokeColor=none;fillColor=none;rotation=0;fontSize=13;" vertex="1" parent="1">
          <mxGeometry x="1247.75" y="327.5" width="110" height="40" as="geometry" />
        </mxCell>
        <mxCell id="8peEFKOhnlwPGsy8Juil-92" value="" style="endArrow=classic;html=1;rounded=0;startArrow=oval;startFill=1;fontSize=13;" edge="1" parent="1">
          <mxGeometry width="50" height="50" relative="1" as="geometry">
            <mxPoint x="1502.75" y="362.5" as="sourcePoint" />
            <mxPoint x="1472.75" y="332.5" as="targetPoint" />
          </mxGeometry>
        </mxCell>
        <mxCell id="8peEFKOhnlwPGsy8Juil-93" value="Provides Sales&lt;div&gt;Report&lt;/div&gt;" style="text;html=1;align=center;verticalAlign=middle;resizable=0;points=[];autosize=1;strokeColor=none;fillColor=none;rotation=0;fontSize=13;" vertex="1" parent="1">
          <mxGeometry x="1492.75" y="327.5" width="110" height="40" as="geometry" />
        </mxCell>
        <mxCell id="8peEFKOhnlwPGsy8Juil-94" value="Sales Report" style="text;html=1;align=center;verticalAlign=middle;resizable=0;points=[];autosize=1;strokeColor=none;fillColor=none;rotation=0;fontSize=13;" vertex="1" parent="1">
          <mxGeometry x="1122.75" y="182.5" width="100" height="30" as="geometry" />
        </mxCell>
        <mxCell id="8peEFKOhnlwPGsy8Juil-95" value="Sales Transaction" style="whiteSpace=wrap;strokeWidth=2;" vertex="1" parent="1">
          <mxGeometry x="1217.25" y="611.5" width="129" height="44" as="geometry" />
        </mxCell>
        <mxCell id="8peEFKOhnlwPGsy8Juil-96" value="Update Inventory" style="whiteSpace=wrap;strokeWidth=2;" vertex="1" parent="1">
          <mxGeometry x="908.75" y="630" width="121" height="35" as="geometry" />
        </mxCell>
        <mxCell id="8peEFKOhnlwPGsy8Juil-97" value="" style="rhombus;strokeWidth=2;whiteSpace=wrap;" vertex="1" parent="1">
          <mxGeometry x="1247.75" y="655.5" width="58.5" height="60" as="geometry" />
        </mxCell>
        <mxCell id="8peEFKOhnlwPGsy8Juil-98" value="Deduct Stock" style="whiteSpace=wrap;strokeWidth=2;" vertex="1" parent="1">
          <mxGeometry x="1296.25" y="795.5" width="112" height="39" as="geometry" />
        </mxCell>
        <mxCell id="8peEFKOhnlwPGsy8Juil-99" value="Reject Transaction" style="whiteSpace=wrap;strokeWidth=2;" vertex="1" parent="1">
          <mxGeometry x="1159.25" y="792.5" width="107" height="39" as="geometry" />
        </mxCell>
        <mxCell id="8peEFKOhnlwPGsy8Juil-100" value="" style="rhombus;strokeWidth=2;whiteSpace=wrap;" vertex="1" parent="1">
          <mxGeometry x="941.75" y="665" width="55" height="54" as="geometry" />
        </mxCell>
        <mxCell id="8peEFKOhnlwPGsy8Juil-101" value="Add Stock" style="whiteSpace=wrap;strokeWidth=2;" vertex="1" parent="1">
          <mxGeometry x="828.75" y="784" width="91" height="32" as="geometry" />
        </mxCell>
        <mxCell id="8peEFKOhnlwPGsy8Juil-102" value="Valid" style="text;html=1;align=center;verticalAlign=middle;resizable=0;points=[];autosize=1;strokeColor=none;fillColor=none;" vertex="1" parent="1">
          <mxGeometry x="1306.25" y="727" width="50" height="30" as="geometry" />
        </mxCell>
        <mxCell id="8peEFKOhnlwPGsy8Juil-103" value="Invalid" style="text;html=1;align=center;verticalAlign=middle;resizable=0;points=[];autosize=1;strokeColor=none;fillColor=none;" vertex="1" parent="1">
          <mxGeometry x="1196.25" y="720" width="60" height="30" as="geometry" />
        </mxCell>
        <mxCell id="8peEFKOhnlwPGsy8Juil-104" value="Admin" style="text;html=1;align=center;verticalAlign=middle;resizable=0;points=[];autosize=1;strokeColor=none;fillColor=none;" vertex="1" parent="1">
          <mxGeometry x="1003.75" y="725" width="60" height="30" as="geometry" />
        </mxCell>
        <mxCell id="8peEFKOhnlwPGsy8Juil-105" value="&lt;span style=&quot;color: rgb(0, 0, 0); font-family: Helvetica; font-size: 11px; font-style: normal; font-variant-ligatures: normal; font-variant-caps: normal; font-weight: 400; letter-spacing: normal; orphans: 2; text-align: center; text-indent: 0px; text-transform: none; widows: 2; word-spacing: 0px; -webkit-text-stroke-width: 0px; white-space: nowrap; background-color: rgb(255, 255, 255); text-decoration-thickness: initial; text-decoration-style: initial; text-decoration-color: initial; display: inline !important; float: none;&quot;&gt;Purchase&lt;/span&gt;" style="text;whiteSpace=wrap;html=1;" vertex="1" parent="1">
          <mxGeometry x="869.75" y="729" width="50" height="26" as="geometry" />
        </mxCell>
        <mxCell id="8peEFKOhnlwPGsy8Juil-106" value="" style="endArrow=oval;html=1;rounded=0;endFill=0;startArrow=block;startFill=1;" edge="1" parent="1">
          <mxGeometry width="50" height="50" relative="1" as="geometry">
            <mxPoint x="1325.25" y="759" as="sourcePoint" />
            <mxPoint x="1306.25" y="737" as="targetPoint" />
          </mxGeometry>
        </mxCell>
        <mxCell id="8peEFKOhnlwPGsy8Juil-107" value="" style="endArrow=oval;html=1;rounded=0;endFill=0;startArrow=block;startFill=1;" edge="1" parent="1">
          <mxGeometry width="50" height="50" relative="1" as="geometry">
            <mxPoint x="1237.25" y="753" as="sourcePoint" />
            <mxPoint x="1256.25" y="727" as="targetPoint" />
          </mxGeometry>
        </mxCell>
        <mxCell id="8peEFKOhnlwPGsy8Juil-108" value="Update&lt;div&gt;Database&lt;/div&gt;" style="text;html=1;align=center;verticalAlign=middle;resizable=0;points=[];autosize=1;strokeColor=none;fillColor=none;fontSize=10;" vertex="1" parent="1">
          <mxGeometry x="908.75" y="755" width="70" height="40" as="geometry" />
        </mxCell>
        <mxCell id="8peEFKOhnlwPGsy8Juil-109" value="" style="endArrow=oval;html=1;rounded=0;endFill=0;startArrow=block;startFill=1;" edge="1" parent="1">
          <mxGeometry width="50" height="50" relative="1" as="geometry">
            <mxPoint x="910.25" y="759" as="sourcePoint" />
            <mxPoint x="934.75" y="735" as="targetPoint" />
          </mxGeometry>
        </mxCell>
        <mxCell id="8peEFKOhnlwPGsy8Juil-110" value="" style="endArrow=classic;html=1;rounded=0;startArrow=oval;startFill=1;" edge="1" parent="1">
          <mxGeometry width="50" height="50" relative="1" as="geometry">
            <mxPoint x="1250.75" y="757" as="sourcePoint" />
            <mxPoint x="1266.25" y="735.5" as="targetPoint" />
          </mxGeometry>
        </mxCell>
        <mxCell id="8peEFKOhnlwPGsy8Juil-111" value="EOF" style="text;html=1;align=center;verticalAlign=middle;resizable=0;points=[];autosize=1;strokeColor=none;fillColor=none;fontSize=10;" vertex="1" parent="1">
          <mxGeometry x="1247.75" y="737" width="40" height="30" as="geometry" />
        </mxCell>
        <mxCell id="8peEFKOhnlwPGsy8Juil-112" value="" style="endArrow=classic;html=1;rounded=0;startArrow=oval;startFill=0;" edge="1" parent="1">
          <mxGeometry width="50" height="50" relative="1" as="geometry">
            <mxPoint x="1009.75" y="765" as="sourcePoint" />
            <mxPoint x="986.75" y="745" as="targetPoint" />
          </mxGeometry>
        </mxCell>
        <mxCell id="8peEFKOhnlwPGsy8Juil-113" value="" style="endArrow=oval;html=1;rounded=0;endFill=0;startArrow=block;startFill=1;" edge="1" parent="1">
          <mxGeometry width="50" height="50" relative="1" as="geometry">
            <mxPoint x="1019.75" y="755" as="sourcePoint" />
            <mxPoint x="999.75" y="735" as="targetPoint" />
          </mxGeometry>
        </mxCell>
        <mxCell id="8peEFKOhnlwPGsy8Juil-114" value="" style="endArrow=classic;html=1;rounded=0;startArrow=oval;startFill=0;" edge="1" parent="1">
          <mxGeometry width="50" height="50" relative="1" as="geometry">
            <mxPoint x="921.75" y="766" as="sourcePoint" />
            <mxPoint x="949.75" y="745" as="targetPoint" />
          </mxGeometry>
        </mxCell>
        <mxCell id="8peEFKOhnlwPGsy8Juil-115" value="Update&lt;div&gt;Database&lt;/div&gt;" style="text;html=1;align=center;verticalAlign=middle;resizable=0;points=[];autosize=1;strokeColor=none;fillColor=none;fontSize=9;" vertex="1" parent="1">
          <mxGeometry x="954.75" y="745" width="60" height="40" as="geometry" />
        </mxCell>
        <mxCell id="8peEFKOhnlwPGsy8Juil-116" value="Inventory Database" style="rounded=1;whiteSpace=wrap;html=1;" vertex="1" parent="1">
          <mxGeometry x="1350" y="910" width="120" height="40" as="geometry" />
        </mxCell>
        <mxCell id="8peEFKOhnlwPGsy8Juil-117" value="" style="endArrow=classic;html=1;rounded=0;entryX=0.5;entryY=0;entryDx=0;entryDy=0;exitX=0.5;exitY=1;exitDx=0;exitDy=0;" edge="1" parent="1" source="8peEFKOhnlwPGsy8Juil-97" target="8peEFKOhnlwPGsy8Juil-98">
          <mxGeometry width="50" height="50" relative="1" as="geometry">
            <mxPoint x="1276.25" y="716.5" as="sourcePoint" />
            <mxPoint x="1361.25" y="790.5" as="targetPoint" />
          </mxGeometry>
        </mxCell>
        <mxCell id="8peEFKOhnlwPGsy8Juil-118" value="" style="endArrow=classic;html=1;rounded=0;entryX=0.5;entryY=0;entryDx=0;entryDy=0;exitX=0.5;exitY=1;exitDx=0;exitDy=0;" edge="1" parent="1" source="8peEFKOhnlwPGsy8Juil-97" target="8peEFKOhnlwPGsy8Juil-99">
          <mxGeometry width="50" height="50" relative="1" as="geometry">
            <mxPoint x="1287.25" y="725.5" as="sourcePoint" />
            <mxPoint x="1220.25" y="805.5" as="targetPoint" />
          </mxGeometry>
        </mxCell>
        <mxCell id="8peEFKOhnlwPGsy8Juil-119" value="" style="endArrow=classic;html=1;rounded=0;entryX=0.25;entryY=0;entryDx=0;entryDy=0;exitX=0.5;exitY=1;exitDx=0;exitDy=0;" edge="1" parent="1" source="8peEFKOhnlwPGsy8Juil-98" target="8peEFKOhnlwPGsy8Juil-116">
          <mxGeometry width="50" height="50" relative="1" as="geometry">
            <mxPoint x="1364" y="886.5" as="sourcePoint" />
            <mxPoint x="1297" y="966.5" as="targetPoint" />
          </mxGeometry>
        </mxCell>
        <mxCell id="8peEFKOhnlwPGsy8Juil-120" value="" style="endArrow=oval;html=1;rounded=0;endFill=0;startArrow=block;startFill=1;" edge="1" parent="1">
          <mxGeometry width="50" height="50" relative="1" as="geometry">
            <mxPoint x="1365" y="885" as="sourcePoint" />
            <mxPoint x="1349.25" y="860" as="targetPoint" />
          </mxGeometry>
        </mxCell>
        <mxCell id="8peEFKOhnlwPGsy8Juil-121" value="Update&lt;div&gt;Database&lt;/div&gt;" style="text;html=1;align=center;verticalAlign=middle;resizable=0;points=[];autosize=1;strokeColor=none;fillColor=none;" vertex="1" parent="1">
          <mxGeometry x="1295" y="860" width="70" height="40" as="geometry" />
        </mxCell>
        <mxCell id="8peEFKOhnlwPGsy8Juil-122" value="Adjust Stock" style="whiteSpace=wrap;strokeWidth=2;" vertex="1" parent="1">
          <mxGeometry x="988.25" y="785" width="91" height="32" as="geometry" />
        </mxCell>
        <mxCell id="8peEFKOhnlwPGsy8Juil-123" value="" style="endArrow=classic;html=1;rounded=0;entryX=0.75;entryY=0;entryDx=0;entryDy=0;exitX=0.5;exitY=1;exitDx=0;exitDy=0;" edge="1" parent="1" source="8peEFKOhnlwPGsy8Juil-100" target="8peEFKOhnlwPGsy8Juil-101">
          <mxGeometry width="50" height="50" relative="1" as="geometry">
            <mxPoint x="908.75" y="744" as="sourcePoint" />
            <mxPoint x="896.5" y="782" as="targetPoint" />
          </mxGeometry>
        </mxCell>
        <mxCell id="8peEFKOhnlwPGsy8Juil-124" value="" style="endArrow=classic;html=1;rounded=0;entryX=0.557;entryY=-0.024;entryDx=0;entryDy=0;exitX=0.5;exitY=1;exitDx=0;exitDy=0;entryPerimeter=0;" edge="1" parent="1" source="8peEFKOhnlwPGsy8Juil-100" target="8peEFKOhnlwPGsy8Juil-122">
          <mxGeometry width="50" height="50" relative="1" as="geometry">
            <mxPoint x="885.75" y="694" as="sourcePoint" />
            <mxPoint x="957.75" y="774" as="targetPoint" />
          </mxGeometry>
        </mxCell>
        <mxCell id="8peEFKOhnlwPGsy8Juil-125" value="" style="endArrow=classic;html=1;rounded=0;exitX=1;exitY=0.75;exitDx=0;exitDy=0;entryX=0.25;entryY=0;entryDx=0;entryDy=0;" edge="1" parent="1" source="8peEFKOhnlwPGsy8Juil-3" target="8peEFKOhnlwPGsy8Juil-6">
          <mxGeometry width="50" height="50" relative="1" as="geometry">
            <mxPoint x="640" y="-5" as="sourcePoint" />
            <mxPoint x="390" y="200" as="targetPoint" />
          </mxGeometry>
        </mxCell>
        <mxCell id="8peEFKOhnlwPGsy8Juil-126" value="" style="endArrow=classic;html=1;rounded=0;exitX=0.25;exitY=1;exitDx=0;exitDy=0;" edge="1" parent="1" source="8peEFKOhnlwPGsy8Juil-6">
          <mxGeometry width="50" height="50" relative="1" as="geometry">
            <mxPoint x="858.75" y="560" as="sourcePoint" />
            <mxPoint x="936.25" y="630" as="targetPoint" />
          </mxGeometry>
        </mxCell>
        <mxCell id="8peEFKOhnlwPGsy8Juil-127" value="" style="endArrow=oval;html=1;rounded=0;endFill=0;startArrow=block;startFill=1;" edge="1" parent="1">
          <mxGeometry width="50" height="50" relative="1" as="geometry">
            <mxPoint x="979.75" y="580" as="sourcePoint" />
            <mxPoint x="965.25" y="600" as="targetPoint" />
          </mxGeometry>
        </mxCell>
        <mxCell id="8peEFKOhnlwPGsy8Juil-128" value="" style="endArrow=oval;html=1;rounded=0;endFill=0;startArrow=block;startFill=1;" edge="1" parent="1">
          <mxGeometry width="50" height="50" relative="1" as="geometry">
            <mxPoint x="949.25" y="600" as="sourcePoint" />
            <mxPoint x="964.25" y="580" as="targetPoint" />
          </mxGeometry>
        </mxCell>
        <mxCell id="8peEFKOhnlwPGsy8Juil-129" value="Stock data" style="text;html=1;align=center;verticalAlign=middle;resizable=0;points=[];autosize=1;strokeColor=none;fillColor=none;" vertex="1" parent="1">
          <mxGeometry x="965.25" y="581.5" width="80" height="30" as="geometry" />
        </mxCell>
        <mxCell id="8peEFKOhnlwPGsy8Juil-130" value="Start Update" style="text;html=1;align=center;verticalAlign=middle;resizable=0;points=[];autosize=1;strokeColor=none;fillColor=none;" vertex="1" parent="1">
          <mxGeometry x="875.25" y="570" width="90" height="30" as="geometry" />
        </mxCell>
        <mxCell id="8peEFKOhnlwPGsy8Juil-131" value="" style="endArrow=classic;html=1;rounded=0;exitX=1;exitY=0.75;exitDx=0;exitDy=0;entryX=0.25;entryY=0;entryDx=0;entryDy=0;" edge="1" parent="1" source="8peEFKOhnlwPGsy8Juil-6" target="8peEFKOhnlwPGsy8Juil-95">
          <mxGeometry width="50" height="50" relative="1" as="geometry">
            <mxPoint x="1159.25" y="611.5" as="sourcePoint" />
            <mxPoint x="1100.25" y="691.5" as="targetPoint" />
          </mxGeometry>
        </mxCell>
        <mxCell id="8peEFKOhnlwPGsy8Juil-132" value="" style="endArrow=oval;html=1;rounded=0;endFill=0;startArrow=block;startFill=1;" edge="1" parent="1">
          <mxGeometry width="50" height="50" relative="1" as="geometry">
            <mxPoint x="1179.25" y="595" as="sourcePoint" />
            <mxPoint x="1149.25" y="575" as="targetPoint" />
          </mxGeometry>
        </mxCell>
        <mxCell id="8peEFKOhnlwPGsy8Juil-133" value="" style="endArrow=oval;html=1;rounded=0;endFill=0;startArrow=block;startFill=1;" edge="1" parent="1">
          <mxGeometry width="50" height="50" relative="1" as="geometry">
            <mxPoint x="1159.25" y="560" as="sourcePoint" />
            <mxPoint x="1189.25" y="580" as="targetPoint" />
          </mxGeometry>
        </mxCell>
        <mxCell id="8peEFKOhnlwPGsy8Juil-134" value="Stock&amp;nbsp;&lt;div&gt;Management&lt;/div&gt;" style="text;html=1;align=center;verticalAlign=middle;resizable=0;points=[];autosize=1;strokeColor=none;fillColor=none;" vertex="1" parent="1">
          <mxGeometry x="1079.25" y="571.5" width="90" height="40" as="geometry" />
        </mxCell>
        <mxCell id="8peEFKOhnlwPGsy8Juil-135" value="Sales details" style="text;html=1;align=center;verticalAlign=middle;resizable=0;points=[];autosize=1;strokeColor=none;fillColor=none;" vertex="1" parent="1">
          <mxGeometry x="1169.25" y="551.5" width="90" height="30" as="geometry" />
        </mxCell>
        <mxCell id="8peEFKOhnlwPGsy8Juil-136" value="Shipment and Tracking" style="rounded=0;whiteSpace=wrap;html=1;" vertex="1" parent="1">
          <mxGeometry x="459" y="287.5" width="110" height="40" as="geometry" />
        </mxCell>
        <mxCell id="8peEFKOhnlwPGsy8Juil-140" value="Tracking Code" style="rounded=0;whiteSpace=wrap;html=1;" vertex="1" parent="1">
          <mxGeometry x="389.78" y="410" width="110" height="40" as="geometry" />
        </mxCell>
        <mxCell id="8peEFKOhnlwPGsy8Juil-141" value="Delivery Status" style="rounded=0;whiteSpace=wrap;html=1;" vertex="1" parent="1">
          <mxGeometry x="649" y="407.5" width="110" height="40" as="geometry" />
        </mxCell>
        <mxCell id="8peEFKOhnlwPGsy8Juil-142" value="" style="group;rotation=40;" vertex="1" connectable="0" parent="1">
          <mxGeometry x="589" y="357.5" width="40" height="10" as="geometry" />
        </mxCell>
        <mxCell id="8peEFKOhnlwPGsy8Juil-143" value="" style="ellipse;whiteSpace=wrap;html=1;aspect=fixed;rotation=40;" vertex="1" parent="8peEFKOhnlwPGsy8Juil-142">
          <mxGeometry x="3" y="-10" width="10" height="10" as="geometry" />
        </mxCell>
        <mxCell id="8peEFKOhnlwPGsy8Juil-144" value="" style="endArrow=classic;html=1;rounded=0;" edge="1" parent="8peEFKOhnlwPGsy8Juil-142">
          <mxGeometry width="50" height="50" relative="1" as="geometry">
            <mxPoint x="12" y="-1" as="sourcePoint" />
            <mxPoint x="35" y="17" as="targetPoint" />
          </mxGeometry>
        </mxCell>
        <mxCell id="8peEFKOhnlwPGsy8Juil-145" value="tracking&amp;nbsp;&lt;div&gt;code&lt;/div&gt;" style="text;html=1;align=center;verticalAlign=middle;resizable=0;points=[];autosize=1;strokeColor=none;fillColor=none;" vertex="1" parent="1">
          <mxGeometry x="549" y="352.5" width="70" height="40" as="geometry" />
        </mxCell>
        <mxCell id="8peEFKOhnlwPGsy8Juil-146" value="Reached Destination" style="rounded=0;whiteSpace=wrap;html=1;" vertex="1" parent="1">
          <mxGeometry x="594" y="587.5" width="75" height="30" as="geometry" />
        </mxCell>
        <mxCell id="8peEFKOhnlwPGsy8Juil-147" value="On the way" style="rounded=0;whiteSpace=wrap;html=1;" vertex="1" parent="1">
          <mxGeometry x="747" y="587.5" width="75" height="30" as="geometry" />
        </mxCell>
        <mxCell id="8peEFKOhnlwPGsy8Juil-148" value="" style="html=1;whiteSpace=wrap;aspect=fixed;shape=isoRectangle;rotation=90;" vertex="1" parent="1">
          <mxGeometry x="681.78" y="457.5" width="44.45" height="26.67" as="geometry" />
        </mxCell>
        <mxCell id="8peEFKOhnlwPGsy8Juil-149" value="send&amp;nbsp;&lt;div&gt;reached&amp;nbsp;&lt;/div&gt;&lt;div&gt;status&lt;/div&gt;" style="text;html=1;align=center;verticalAlign=middle;resizable=0;points=[];autosize=1;strokeColor=none;fillColor=none;" vertex="1" parent="1">
          <mxGeometry x="611.78" y="483" width="70" height="60" as="geometry" />
        </mxCell>
        <mxCell id="8peEFKOhnlwPGsy8Juil-150" value="send&lt;div&gt;on the way&lt;/div&gt;&lt;div&gt;status&lt;/div&gt;" style="text;html=1;align=center;verticalAlign=middle;resizable=0;points=[];autosize=1;strokeColor=none;fillColor=none;" vertex="1" parent="1">
          <mxGeometry x="726.23" y="482.5" width="80" height="60" as="geometry" />
        </mxCell>
        <mxCell id="8peEFKOhnlwPGsy8Juil-151" value="provide delivery&lt;div&gt;status&lt;/div&gt;" style="text;html=1;align=center;verticalAlign=middle;resizable=0;points=[];autosize=1;strokeColor=none;fillColor=none;" vertex="1" parent="1">
          <mxGeometry x="619" y="327.5" width="110" height="40" as="geometry" />
        </mxCell>
        <mxCell id="8peEFKOhnlwPGsy8Juil-152" value="" style="html=1;verticalAlign=bottom;startArrow=oval;startFill=1;endArrow=block;startSize=8;curved=0;rounded=0;" edge="1" parent="1">
          <mxGeometry x="0.6667" y="-50" width="60" relative="1" as="geometry">
            <mxPoint x="664" y="542.5" as="sourcePoint" />
            <mxPoint x="689" y="497.5" as="targetPoint" />
            <mxPoint as="offset" />
          </mxGeometry>
        </mxCell>
        <mxCell id="8peEFKOhnlwPGsy8Juil-153" value="" style="html=1;verticalAlign=bottom;startArrow=oval;startFill=1;endArrow=block;startSize=8;curved=0;rounded=0;" edge="1" parent="1">
          <mxGeometry x="0.6667" y="-50" width="60" relative="1" as="geometry">
            <mxPoint x="739" y="532.5" as="sourcePoint" />
            <mxPoint x="719" y="502.5" as="targetPoint" />
            <mxPoint as="offset" />
          </mxGeometry>
        </mxCell>
        <mxCell id="8peEFKOhnlwPGsy8Juil-154" value="" style="html=1;verticalAlign=bottom;startArrow=oval;startFill=1;endArrow=block;startSize=8;curved=0;rounded=0;" edge="1" parent="1">
          <mxGeometry x="0.6667" y="-50" width="60" relative="1" as="geometry">
            <mxPoint x="646.5" y="367.5" as="sourcePoint" />
            <mxPoint x="616.5" y="337.5" as="targetPoint" />
            <mxPoint as="offset" />
          </mxGeometry>
        </mxCell>
        <mxCell id="8peEFKOhnlwPGsy8Juil-155" value="provide&lt;div&gt;tracking code&lt;/div&gt;" style="text;html=1;align=center;verticalAlign=middle;resizable=0;points=[];autosize=1;strokeColor=none;fillColor=none;" vertex="1" parent="1">
          <mxGeometry x="389.78" y="333.76" width="90" height="40" as="geometry" />
        </mxCell>
        <mxCell id="8peEFKOhnlwPGsy8Juil-156" value="" style="endArrow=classic;html=1;rounded=0;exitX=0.604;exitY=1.052;exitDx=0;exitDy=0;entryX=0.25;entryY=0;entryDx=0;entryDy=0;exitPerimeter=0;" edge="1" parent="1" source="8peEFKOhnlwPGsy8Juil-3" target="8peEFKOhnlwPGsy8Juil-7">
          <mxGeometry width="50" height="50" relative="1" as="geometry">
            <mxPoint x="564" y="-70" as="sourcePoint" />
            <mxPoint x="750" y="40" as="targetPoint" />
          </mxGeometry>
        </mxCell>
        <mxCell id="8peEFKOhnlwPGsy8Juil-157" value="" style="endArrow=classic;html=1;rounded=0;exitX=0.25;exitY=1;exitDx=0;exitDy=0;entryX=0.25;entryY=0;entryDx=0;entryDy=0;" edge="1" parent="1" source="8peEFKOhnlwPGsy8Juil-7" target="8peEFKOhnlwPGsy8Juil-136">
          <mxGeometry width="50" height="50" relative="1" as="geometry">
            <mxPoint x="179.5" y="162.5" as="sourcePoint" />
            <mxPoint x="769.5" y="307.5" as="targetPoint" />
          </mxGeometry>
        </mxCell>
        <mxCell id="8peEFKOhnlwPGsy8Juil-158" value="" style="endArrow=classic;html=1;rounded=0;exitX=0.5;exitY=1;exitDx=0;exitDy=0;" edge="1" parent="1" source="8peEFKOhnlwPGsy8Juil-136" target="8peEFKOhnlwPGsy8Juil-140">
          <mxGeometry width="50" height="50" relative="1" as="geometry">
            <mxPoint x="541" y="377.5" as="sourcePoint" />
            <mxPoint x="559" y="502.5" as="targetPoint" />
          </mxGeometry>
        </mxCell>
        <mxCell id="8peEFKOhnlwPGsy8Juil-159" value="" style="endArrow=classic;html=1;rounded=0;exitX=1;exitY=0.75;exitDx=0;exitDy=0;entryX=0.25;entryY=0;entryDx=0;entryDy=0;" edge="1" parent="1" source="8peEFKOhnlwPGsy8Juil-136" target="8peEFKOhnlwPGsy8Juil-141">
          <mxGeometry width="50" height="50" relative="1" as="geometry">
            <mxPoint x="608.71" y="387.5" as="sourcePoint" />
            <mxPoint x="608.71" y="467.5" as="targetPoint" />
          </mxGeometry>
        </mxCell>
        <mxCell id="8peEFKOhnlwPGsy8Juil-160" value="" style="endArrow=classic;html=1;rounded=0;exitX=0.999;exitY=0.505;exitDx=0;exitDy=0;entryX=0.25;entryY=0;entryDx=0;entryDy=0;exitPerimeter=0;" edge="1" parent="1" source="8peEFKOhnlwPGsy8Juil-148" target="8peEFKOhnlwPGsy8Juil-147">
          <mxGeometry width="50" height="50" relative="1" as="geometry">
            <mxPoint x="719" y="522.5" as="sourcePoint" />
            <mxPoint x="719" y="602.5" as="targetPoint" />
          </mxGeometry>
        </mxCell>
        <mxCell id="8peEFKOhnlwPGsy8Juil-161" value="" style="endArrow=classic;html=1;rounded=0;exitX=0.989;exitY=0.491;exitDx=0;exitDy=0;exitPerimeter=0;entryX=0.75;entryY=0;entryDx=0;entryDy=0;" edge="1" parent="1" source="8peEFKOhnlwPGsy8Juil-148" target="8peEFKOhnlwPGsy8Juil-146">
          <mxGeometry width="50" height="50" relative="1" as="geometry">
            <mxPoint x="699" y="548" as="sourcePoint" />
            <mxPoint x="699" y="628" as="targetPoint" />
          </mxGeometry>
        </mxCell>
        <mxCell id="8peEFKOhnlwPGsy8Juil-162" value="Receipt Management" style="rounded=0;whiteSpace=wrap;html=1;" vertex="1" parent="1">
          <mxGeometry x="459" y="672" width="150" height="40" as="geometry" />
        </mxCell>
        <mxCell id="8peEFKOhnlwPGsy8Juil-181" value="Payment Management" style="rounded=0;whiteSpace=wrap;html=1;" vertex="1" parent="1">
          <mxGeometry x="145" y="672" width="150" height="40" as="geometry" />
        </mxCell>
        <mxCell id="8peEFKOhnlwPGsy8Juil-188" value="" style="endArrow=classic;html=1;rounded=0;exitX=0.25;exitY=1;exitDx=0;exitDy=0;entryX=0.5;entryY=0;entryDx=0;entryDy=0;" edge="1" parent="1" source="8peEFKOhnlwPGsy8Juil-3" target="8peEFKOhnlwPGsy8Juil-8">
          <mxGeometry width="50" height="50" relative="1" as="geometry">
            <mxPoint x="489.5" y="-80" as="sourcePoint" />
            <mxPoint x="1079.5" y="65" as="targetPoint" />
          </mxGeometry>
        </mxCell>
        <mxCell id="8peEFKOhnlwPGsy8Juil-189" value="" style="endArrow=classic;html=1;rounded=0;exitX=0.25;exitY=1;exitDx=0;exitDy=0;entryX=0.5;entryY=0;entryDx=0;entryDy=0;" edge="1" parent="1" source="8peEFKOhnlwPGsy8Juil-8" target="8peEFKOhnlwPGsy8Juil-181">
          <mxGeometry width="50" height="50" relative="1" as="geometry">
            <mxPoint x="29.78" y="639" as="sourcePoint" />
            <mxPoint x="47.78" y="764" as="targetPoint" />
          </mxGeometry>
        </mxCell>
        <mxCell id="8peEFKOhnlwPGsy8Juil-191" value="User Management" style="rounded=0;whiteSpace=wrap;html=1;" vertex="1" parent="1">
          <mxGeometry x="-371.14" y="28.76" width="120" height="40" as="geometry" />
        </mxCell>
        <mxCell id="8peEFKOhnlwPGsy8Juil-192" value="" style="endArrow=classic;html=1;rounded=0;exitX=0;exitY=0.25;exitDx=0;exitDy=0;entryX=1;entryY=0.5;entryDx=0;entryDy=0;" edge="1" parent="1" source="8peEFKOhnlwPGsy8Juil-3" target="8peEFKOhnlwPGsy8Juil-191">
          <mxGeometry width="50" height="50" relative="1" as="geometry">
            <mxPoint x="40" y="-20" as="sourcePoint" />
            <mxPoint x="90" y="-70" as="targetPoint" />
          </mxGeometry>
        </mxCell>
        <mxCell id="8peEFKOhnlwPGsy8Juil-193" value="Login" style="rounded=0;whiteSpace=wrap;html=1;" vertex="1" parent="1">
          <mxGeometry x="-479.5" y="132.76" width="100" height="30" as="geometry" />
        </mxCell>
        <mxCell id="8peEFKOhnlwPGsy8Juil-194" value="Regestration" style="rounded=0;whiteSpace=wrap;html=1;" vertex="1" parent="1">
          <mxGeometry x="-319.5" y="132.76" width="110" height="28" as="geometry" />
        </mxCell>
        <mxCell id="8peEFKOhnlwPGsy8Juil-195" value="" style="endArrow=classic;html=1;rounded=0;exitX=0.5;exitY=1;exitDx=0;exitDy=0;entryX=0.5;entryY=0;entryDx=0;entryDy=0;" edge="1" parent="1" source="8peEFKOhnlwPGsy8Juil-191" target="8peEFKOhnlwPGsy8Juil-194">
          <mxGeometry width="50" height="50" relative="1" as="geometry">
            <mxPoint x="-209.5" y="138.76" as="sourcePoint" />
            <mxPoint x="-159.5" y="88.76" as="targetPoint" />
          </mxGeometry>
        </mxCell>
        <mxCell id="8peEFKOhnlwPGsy8Juil-196" value="User Information" style="rounded=1;whiteSpace=wrap;html=1;" vertex="1" parent="1">
          <mxGeometry x="-314.5" y="210.26" width="100" height="34" as="geometry" />
        </mxCell>
        <mxCell id="8peEFKOhnlwPGsy8Juil-197" value="" style="endArrow=oval;html=1;rounded=0;endFill=0;startArrow=block;startFill=1;" edge="1" parent="1">
          <mxGeometry width="50" height="50" relative="1" as="geometry">
            <mxPoint x="-266.64" y="108.76" as="sourcePoint" />
            <mxPoint x="-289.5" y="78.76" as="targetPoint" />
          </mxGeometry>
        </mxCell>
        <mxCell id="8peEFKOhnlwPGsy8Juil-198" value="" style="endArrow=classic;html=1;rounded=0;startArrow=oval;startFill=1;" edge="1" parent="1">
          <mxGeometry width="50" height="50" relative="1" as="geometry">
            <mxPoint x="-274.5" y="193.76" as="sourcePoint" />
            <mxPoint x="-274.5" y="173.76" as="targetPoint" />
          </mxGeometry>
        </mxCell>
        <mxCell id="8peEFKOhnlwPGsy8Juil-199" value="User&amp;nbsp;&lt;div&gt;Credential&lt;/div&gt;" style="text;html=1;align=center;verticalAlign=middle;resizable=0;points=[];autosize=1;strokeColor=none;fillColor=none;" vertex="1" parent="1">
          <mxGeometry x="-279.5" y="68.76" width="80" height="40" as="geometry" />
        </mxCell>
        <mxCell id="8peEFKOhnlwPGsy8Juil-200" value="" style="endArrow=classic;html=1;rounded=0;exitX=0.5;exitY=1;exitDx=0;exitDy=0;" edge="1" parent="1" source="8peEFKOhnlwPGsy8Juil-194" target="8peEFKOhnlwPGsy8Juil-196">
          <mxGeometry width="50" height="50" relative="1" as="geometry">
            <mxPoint x="-249.5" y="268.76" as="sourcePoint" />
            <mxPoint x="-199.5" y="218.76" as="targetPoint" />
          </mxGeometry>
        </mxCell>
        <mxCell id="8peEFKOhnlwPGsy8Juil-201" value="" style="endArrow=oval;html=1;rounded=0;endFill=0;startArrow=block;startFill=1;" edge="1" parent="1">
          <mxGeometry width="50" height="50" relative="1" as="geometry">
            <mxPoint x="-259.5" y="194.76" as="sourcePoint" />
            <mxPoint x="-258.5" y="172.76" as="targetPoint" />
          </mxGeometry>
        </mxCell>
        <mxCell id="8peEFKOhnlwPGsy8Juil-202" value="Stores details" style="text;html=1;align=center;verticalAlign=middle;resizable=0;points=[];autosize=1;strokeColor=none;fillColor=none;" vertex="1" parent="1">
          <mxGeometry x="-266.64" y="165.76" width="100" height="30" as="geometry" />
        </mxCell>
        <mxCell id="8peEFKOhnlwPGsy8Juil-203" value="EOF" style="text;html=1;align=center;verticalAlign=middle;resizable=0;points=[];autosize=1;strokeColor=none;fillColor=none;" vertex="1" parent="1">
          <mxGeometry x="-314.5" y="170.26" width="50" height="30" as="geometry" />
        </mxCell>
        <mxCell id="8peEFKOhnlwPGsy8Juil-204" value="" style="endArrow=classic;html=1;rounded=0;startArrow=oval;startFill=1;" edge="1" parent="1">
          <mxGeometry width="50" height="50" relative="1" as="geometry">
            <mxPoint x="-289.5" y="118.76" as="sourcePoint" />
            <mxPoint x="-319.5" y="78.76" as="targetPoint" />
          </mxGeometry>
        </mxCell>
        <mxCell id="8peEFKOhnlwPGsy8Juil-205" value="" style="endArrow=classic;html=1;rounded=0;startArrow=oval;startFill=1;" edge="1" parent="1">
          <mxGeometry width="50" height="50" relative="1" as="geometry">
            <mxPoint x="-479.5" y="323.76" as="sourcePoint" />
            <mxPoint x="-449.5" y="258.76" as="targetPoint" />
          </mxGeometry>
        </mxCell>
        <mxCell id="8peEFKOhnlwPGsy8Juil-206" value="" style="endArrow=classic;html=1;rounded=0;exitX=0.25;exitY=1;exitDx=0;exitDy=0;entryX=0.75;entryY=0;entryDx=0;entryDy=0;" edge="1" parent="1" source="8peEFKOhnlwPGsy8Juil-191" target="8peEFKOhnlwPGsy8Juil-193">
          <mxGeometry width="50" height="50" relative="1" as="geometry">
            <mxPoint x="-373" y="84.76" as="sourcePoint" />
            <mxPoint x="-326" y="148.76" as="targetPoint" />
          </mxGeometry>
        </mxCell>
        <mxCell id="8peEFKOhnlwPGsy8Juil-207" value="EOF" style="text;html=1;align=center;verticalAlign=middle;resizable=0;points=[];autosize=1;strokeColor=none;fillColor=none;" vertex="1" parent="1">
          <mxGeometry x="-349.5" y="88.76" width="50" height="30" as="geometry" />
        </mxCell>
        <mxCell id="8peEFKOhnlwPGsy8Juil-208" value="Login&amp;nbsp;&lt;div&gt;Details&lt;/div&gt;" style="text;html=1;align=center;verticalAlign=middle;resizable=0;points=[];autosize=1;strokeColor=none;fillColor=none;" vertex="1" parent="1">
          <mxGeometry x="-431.14" y="68.76" width="60" height="40" as="geometry" />
        </mxCell>
        <mxCell id="8peEFKOhnlwPGsy8Juil-210" value="" style="endArrow=oval;html=1;rounded=0;endFill=0;startArrow=block;startFill=1;" edge="1" parent="1">
          <mxGeometry width="50" height="50" relative="1" as="geometry">
            <mxPoint x="-389.5" y="110.76" as="sourcePoint" />
            <mxPoint x="-369.5" y="88.76" as="targetPoint" />
          </mxGeometry>
        </mxCell>
        <mxCell id="8peEFKOhnlwPGsy8Juil-214" value="" style="rhombus;whiteSpace=wrap;html=1;" vertex="1" parent="1">
          <mxGeometry x="-444.5" y="161.76" width="30" height="34" as="geometry" />
        </mxCell>
        <mxCell id="8peEFKOhnlwPGsy8Juil-215" value="Login Success" style="rounded=0;whiteSpace=wrap;html=1;" vertex="1" parent="1">
          <mxGeometry x="-565.64" y="348.76" width="90" height="25" as="geometry" />
        </mxCell>
        <mxCell id="8peEFKOhnlwPGsy8Juil-216" value="Login Failed" style="rounded=0;whiteSpace=wrap;html=1;" vertex="1" parent="1">
          <mxGeometry x="-409.5" y="348.76" width="90" height="25" as="geometry" />
        </mxCell>
        <mxCell id="8peEFKOhnlwPGsy8Juil-217" value="" style="endArrow=classic;html=1;rounded=0;entryX=0.75;entryY=0;entryDx=0;entryDy=0;exitX=0.5;exitY=1;exitDx=0;exitDy=0;" edge="1" parent="1" source="8peEFKOhnlwPGsy8Juil-214" target="8peEFKOhnlwPGsy8Juil-215">
          <mxGeometry width="50" height="50" relative="1" as="geometry">
            <mxPoint x="-449.5" y="328.76" as="sourcePoint" />
            <mxPoint x="-499.5" y="388.76" as="targetPoint" />
          </mxGeometry>
        </mxCell>
        <mxCell id="8peEFKOhnlwPGsy8Juil-218" value="" style="endArrow=classic;html=1;rounded=0;entryX=0.25;entryY=0;entryDx=0;entryDy=0;exitX=0.5;exitY=1;exitDx=0;exitDy=0;" edge="1" parent="1" source="8peEFKOhnlwPGsy8Juil-214" target="8peEFKOhnlwPGsy8Juil-216">
          <mxGeometry width="50" height="50" relative="1" as="geometry">
            <mxPoint x="-419.5" y="302.76" as="sourcePoint" />
            <mxPoint x="-488.5" y="358.76" as="targetPoint" />
          </mxGeometry>
        </mxCell>
        <mxCell id="8peEFKOhnlwPGsy8Juil-219" value="Send Success&lt;div&gt;Notification&lt;/div&gt;" style="text;html=1;align=center;verticalAlign=middle;resizable=0;points=[];autosize=1;strokeColor=none;fillColor=none;" vertex="1" parent="1">
          <mxGeometry x="-565.64" y="258.76" width="100" height="40" as="geometry" />
        </mxCell>
        <mxCell id="8peEFKOhnlwPGsy8Juil-220" value="" style="endArrow=classic;html=1;rounded=0;startArrow=oval;startFill=1;" edge="1" parent="1">
          <mxGeometry width="50" height="50" relative="1" as="geometry">
            <mxPoint x="-379.5" y="328.76" as="sourcePoint" />
            <mxPoint x="-399.5" y="248.76" as="targetPoint" />
          </mxGeometry>
        </mxCell>
        <mxCell id="8peEFKOhnlwPGsy8Juil-221" value="Send Failure&lt;div&gt;Notification&lt;/div&gt;" style="text;html=1;align=center;verticalAlign=middle;resizable=0;points=[];autosize=1;strokeColor=none;fillColor=none;" vertex="1" parent="1">
          <mxGeometry x="-389.5" y="258.76" width="90" height="40" as="geometry" />
        </mxCell>
        <mxCell id="8peEFKOhnlwPGsy8Juil-224" value="User Credential" style="text;html=1;align=center;verticalAlign=middle;resizable=0;points=[];autosize=1;strokeColor=none;fillColor=none;" vertex="1" parent="1">
          <mxGeometry x="-30" y="-80" width="110" height="30" as="geometry" />
        </mxCell>
        <mxCell id="8peEFKOhnlwPGsy8Juil-225" value="" style="endArrow=classic;html=1;rounded=0;startArrow=oval;startFill=0;" edge="1" parent="1">
          <mxGeometry width="50" height="50" relative="1" as="geometry">
            <mxPoint x="-10" y="-40" as="sourcePoint" />
            <mxPoint x="60" y="-50" as="targetPoint" />
          </mxGeometry>
        </mxCell>
        <mxCell id="8peEFKOhnlwPGsy8Juil-226" value="" style="endArrow=classic;html=1;rounded=0;startArrow=oval;startFill=0;" edge="1" parent="1">
          <mxGeometry width="50" height="50" relative="1" as="geometry">
            <mxPoint x="340" y="170" as="sourcePoint" />
            <mxPoint x="340" y="290" as="targetPoint" />
            <Array as="points" />
          </mxGeometry>
        </mxCell>
        <mxCell id="8peEFKOhnlwPGsy8Juil-227" value="" style="endArrow=classic;html=1;rounded=0;startArrow=oval;startFill=0;" edge="1" parent="1">
          <mxGeometry width="50" height="50" relative="1" as="geometry">
            <mxPoint x="685.5" y="-30" as="sourcePoint" />
            <mxPoint x="762.5" y="-6.5" as="targetPoint" />
          </mxGeometry>
        </mxCell>
        <mxCell id="8peEFKOhnlwPGsy8Juil-228" value="" style="endArrow=classic;html=1;rounded=0;startArrow=oval;startFill=0;" edge="1" parent="1">
          <mxGeometry width="50" height="50" relative="1" as="geometry">
            <mxPoint x="200" y="30" as="sourcePoint" />
            <mxPoint x="140" y="80" as="targetPoint" />
          </mxGeometry>
        </mxCell>
        <mxCell id="8peEFKOhnlwPGsy8Juil-229" value="Purchase Id" style="text;html=1;align=center;verticalAlign=middle;resizable=0;points=[];autosize=1;strokeColor=none;fillColor=none;" vertex="1" parent="1">
          <mxGeometry x="90" y="30" width="90" height="30" as="geometry" />
        </mxCell>
        <mxCell id="8peEFKOhnlwPGsy8Juil-230" value="Report Type" style="text;html=1;align=center;verticalAlign=middle;resizable=0;points=[];autosize=1;strokeColor=none;fillColor=none;" vertex="1" parent="1">
          <mxGeometry x="705" y="-40" width="90" height="30" as="geometry" />
        </mxCell>
        <mxCell id="8peEFKOhnlwPGsy8Juil-231" value="" style="endArrow=classic;html=1;rounded=0;startArrow=oval;startFill=0;" edge="1" parent="1">
          <mxGeometry width="50" height="50" relative="1" as="geometry">
            <mxPoint x="435" y="26.5" as="sourcePoint" />
            <mxPoint x="460" y="70" as="targetPoint" />
          </mxGeometry>
        </mxCell>
        <mxCell id="8peEFKOhnlwPGsy8Juil-232" value="Shipping&amp;nbsp;&lt;div&gt;Details&lt;/div&gt;" style="text;html=1;align=center;verticalAlign=middle;resizable=0;points=[];autosize=1;strokeColor=none;fillColor=none;" vertex="1" parent="1">
          <mxGeometry x="447" y="25" width="70" height="40" as="geometry" />
        </mxCell>
        <mxCell id="8peEFKOhnlwPGsy8Juil-233" value="Payment Information" style="text;html=1;align=center;verticalAlign=middle;resizable=0;points=[];autosize=1;strokeColor=none;fillColor=none;" vertex="1" parent="1">
          <mxGeometry x="211.78" y="215.5" width="130" height="30" as="geometry" />
        </mxCell>
        <mxCell id="8peEFKOhnlwPGsy8Juil-234" value="" style="endArrow=classic;html=1;rounded=0;exitX=1;exitY=0.25;exitDx=0;exitDy=0;entryX=0;entryY=0.25;entryDx=0;entryDy=0;" edge="1" parent="1" source="8peEFKOhnlwPGsy8Juil-3" target="8peEFKOhnlwPGsy8Juil-5">
          <mxGeometry width="50" height="50" relative="1" as="geometry">
            <mxPoint x="750" y="70" as="sourcePoint" />
            <mxPoint x="800" y="20" as="targetPoint" />
          </mxGeometry>
        </mxCell>
        <mxCell id="8peEFKOhnlwPGsy8Juil-237" value="" style="endArrow=classic;html=1;rounded=0;curved=1;" edge="1" parent="1">
          <mxGeometry width="50" height="50" relative="1" as="geometry">
            <mxPoint x="-205.5" y="415" as="sourcePoint" />
            <mxPoint x="-275.5" y="415" as="targetPoint" />
            <Array as="points">
              <mxPoint x="-235.5" y="455" />
            </Array>
          </mxGeometry>
        </mxCell>
        <mxCell id="8peEFKOhnlwPGsy8Juil-242" value="" style="endArrow=classic;html=1;rounded=0;exitX=0.5;exitY=1;exitDx=0;exitDy=0;entryX=0.5;entryY=0;entryDx=0;entryDy=0;" edge="1" parent="1" source="8peEFKOhnlwPGsy8Juil-8" target="8peEFKOhnlwPGsy8Juil-162">
          <mxGeometry width="50" height="50" relative="1" as="geometry">
            <mxPoint x="480" y="630" as="sourcePoint" />
            <mxPoint x="530" y="580" as="targetPoint" />
          </mxGeometry>
        </mxCell>
        <mxCell id="8peEFKOhnlwPGsy8Juil-243" value="" style="endArrow=classic;html=1;rounded=0;startArrow=oval;startFill=0;" edge="1" parent="1">
          <mxGeometry width="50" height="50" relative="1" as="geometry">
            <mxPoint x="460" y="380" as="sourcePoint" />
            <mxPoint x="490" y="340" as="targetPoint" />
          </mxGeometry>
        </mxCell>
        <mxCell id="8peEFKOhnlwPGsy8Juil-269" value="" style="endArrow=classic;html=1;rounded=0;entryX=0.576;entryY=0.024;entryDx=0;entryDy=0;entryPerimeter=0;" edge="1" parent="1" source="8peEFKOhnlwPGsy8Juil-4" target="8peEFKOhnlwPGsy8Juil-10">
          <mxGeometry width="50" height="50" relative="1" as="geometry">
            <mxPoint x="-60" y="350" as="sourcePoint" />
            <mxPoint x="-10" y="300" as="targetPoint" />
          </mxGeometry>
        </mxCell>
        <mxCell id="8peEFKOhnlwPGsy8Juil-270" value="" style="endArrow=classic;html=1;rounded=0;startArrow=oval;startFill=0;" edge="1" parent="1">
          <mxGeometry width="50" height="50" relative="1" as="geometry">
            <mxPoint x="490" y="190" as="sourcePoint" />
            <mxPoint x="510" y="280" as="targetPoint" />
          </mxGeometry>
        </mxCell>
        <mxCell id="8peEFKOhnlwPGsy8Juil-271" value="Dispatch Id" style="text;html=1;align=center;verticalAlign=middle;whiteSpace=wrap;rounded=0;" vertex="1" parent="1">
          <mxGeometry x="517" y="208" width="60" height="30" as="geometry" />
        </mxCell>
        <mxCell id="8peEFKOhnlwPGsy8Juil-272" value="" style="endArrow=classic;html=1;rounded=0;" edge="1" parent="1" source="8peEFKOhnlwPGsy8Juil-181">
          <mxGeometry width="50" height="50" relative="1" as="geometry">
            <mxPoint x="120" y="820" as="sourcePoint" />
            <mxPoint x="150" y="800" as="targetPoint" />
          </mxGeometry>
        </mxCell>
        <mxCell id="8peEFKOhnlwPGsy8Juil-273" value="Payment Auth" style="rounded=0;whiteSpace=wrap;html=1;" vertex="1" parent="1">
          <mxGeometry x="90" y="800" width="142" height="50" as="geometry" />
        </mxCell>
        <mxCell id="8peEFKOhnlwPGsy8Juil-274" value="Failure Notification" style="rounded=0;whiteSpace=wrap;html=1;" vertex="1" parent="1">
          <mxGeometry x="260" y="800" width="120" height="50" as="geometry" />
        </mxCell>
        <mxCell id="8peEFKOhnlwPGsy8Juil-275" value="" style="endArrow=classic;html=1;rounded=0;entryX=0.5;entryY=0;entryDx=0;entryDy=0;" edge="1" parent="1" target="8peEFKOhnlwPGsy8Juil-274">
          <mxGeometry width="50" height="50" relative="1" as="geometry">
            <mxPoint x="231" y="710" as="sourcePoint" />
            <mxPoint x="350" y="760" as="targetPoint" />
          </mxGeometry>
        </mxCell>
        <mxCell id="8peEFKOhnlwPGsy8Juil-276" value="" style="endArrow=classic;html=1;rounded=0;startArrow=oval;startFill=0;" edge="1" parent="1">
          <mxGeometry width="50" height="50" relative="1" as="geometry">
            <mxPoint x="180" y="730" as="sourcePoint" />
            <mxPoint x="150" y="780" as="targetPoint" />
          </mxGeometry>
        </mxCell>
        <mxCell id="8peEFKOhnlwPGsy8Juil-277" value="Payment Id" style="text;html=1;align=center;verticalAlign=middle;whiteSpace=wrap;rounded=0;" vertex="1" parent="1">
          <mxGeometry x="105" y="729" width="60" height="30" as="geometry" />
        </mxCell>
        <mxCell id="8peEFKOhnlwPGsy8Juil-278" value="" style="endArrow=classic;html=1;rounded=0;startArrow=oval;startFill=0;" edge="1" parent="1">
          <mxGeometry width="50" height="50" relative="1" as="geometry">
            <mxPoint x="170" y="790" as="sourcePoint" />
            <mxPoint x="210" y="730" as="targetPoint" />
          </mxGeometry>
        </mxCell>
        <mxCell id="8peEFKOhnlwPGsy8Juil-279" value="Auth" style="text;html=1;align=center;verticalAlign=middle;whiteSpace=wrap;rounded=0;" vertex="1" parent="1">
          <mxGeometry x="180" y="755" width="60" height="30" as="geometry" />
        </mxCell>
        <mxCell id="8peEFKOhnlwPGsy8Juil-281" value="" style="endArrow=classic;html=1;rounded=0;startArrow=oval;startFill=0;" edge="1" parent="1">
          <mxGeometry width="50" height="50" relative="1" as="geometry">
            <mxPoint x="280" y="740" as="sourcePoint" />
            <mxPoint x="310" y="770" as="targetPoint" />
          </mxGeometry>
        </mxCell>
        <mxCell id="8peEFKOhnlwPGsy8Juil-282" value="Payment Id" style="text;html=1;align=center;verticalAlign=middle;whiteSpace=wrap;rounded=0;" vertex="1" parent="1">
          <mxGeometry x="310" y="727" width="60" height="30" as="geometry" />
        </mxCell>
        <mxCell id="8peEFKOhnlwPGsy8Juil-283" value="" style="endArrow=classic;html=1;rounded=0;startArrow=oval;startFill=1;" edge="1" parent="1">
          <mxGeometry width="50" height="50" relative="1" as="geometry">
            <mxPoint x="290" y="790" as="sourcePoint" />
            <mxPoint x="250" y="750" as="targetPoint" />
          </mxGeometry>
        </mxCell>
        <mxCell id="8peEFKOhnlwPGsy8Juil-284" value="Failure" style="text;html=1;align=center;verticalAlign=middle;whiteSpace=wrap;rounded=0;" vertex="1" parent="1">
          <mxGeometry x="220" y="759" width="60" height="30" as="geometry" />
        </mxCell>
        <mxCell id="8peEFKOhnlwPGsy8Juil-288" value="Transaction Status" style="rounded=0;whiteSpace=wrap;html=1;" vertex="1" parent="1">
          <mxGeometry x="420" y="800" width="120" height="50" as="geometry" />
        </mxCell>
        <mxCell id="8peEFKOhnlwPGsy8Juil-289" value="Transaction Validation" style="rounded=0;whiteSpace=wrap;html=1;" vertex="1" parent="1">
          <mxGeometry x="560" y="800" width="140" height="50" as="geometry" />
        </mxCell>
        <mxCell id="8peEFKOhnlwPGsy8Juil-290" value="" style="endArrow=classic;html=1;rounded=0;entryX=0.403;entryY=-0.035;entryDx=0;entryDy=0;entryPerimeter=0;" edge="1" parent="1" source="8peEFKOhnlwPGsy8Juil-162" target="8peEFKOhnlwPGsy8Juil-288">
          <mxGeometry width="50" height="50" relative="1" as="geometry">
            <mxPoint x="320" y="950" as="sourcePoint" />
            <mxPoint x="370" y="900" as="targetPoint" />
          </mxGeometry>
        </mxCell>
        <mxCell id="8peEFKOhnlwPGsy8Juil-291" value="" style="endArrow=classic;html=1;rounded=0;exitX=0.75;exitY=1;exitDx=0;exitDy=0;entryX=0.5;entryY=0;entryDx=0;entryDy=0;" edge="1" parent="1" source="8peEFKOhnlwPGsy8Juil-162" target="8peEFKOhnlwPGsy8Juil-289">
          <mxGeometry width="50" height="50" relative="1" as="geometry">
            <mxPoint x="580" y="790" as="sourcePoint" />
            <mxPoint x="630" y="740" as="targetPoint" />
          </mxGeometry>
        </mxCell>
        <mxCell id="8peEFKOhnlwPGsy8Juil-292" value="" style="endArrow=oval;html=1;rounded=0;startArrow=classic;startFill=1;endFill=0;" edge="1" parent="1">
          <mxGeometry width="50" height="50" relative="1" as="geometry">
            <mxPoint x="240" y="630" as="sourcePoint" />
            <mxPoint x="290" y="580" as="targetPoint" />
          </mxGeometry>
        </mxCell>
        <mxCell id="8peEFKOhnlwPGsy8Juil-293" value="Payment&amp;nbsp;&lt;div&gt;ID&lt;/div&gt;" style="text;html=1;align=center;verticalAlign=middle;whiteSpace=wrap;rounded=0;" vertex="1" parent="1">
          <mxGeometry x="211.78" y="581.5" width="60" height="30" as="geometry" />
        </mxCell>
        <mxCell id="8peEFKOhnlwPGsy8Juil-294" value="" style="endArrow=classic;html=1;rounded=0;startArrow=oval;startFill=0;" edge="1" parent="1">
          <mxGeometry width="50" height="50" relative="1" as="geometry">
            <mxPoint x="440" y="580" as="sourcePoint" />
            <mxPoint x="510" y="630" as="targetPoint" />
          </mxGeometry>
        </mxCell>
        <mxCell id="8peEFKOhnlwPGsy8Juil-295" value="" style="endArrow=classic;html=1;rounded=0;startArrow=oval;startFill=0;" edge="1" parent="1">
          <mxGeometry width="50" height="50" relative="1" as="geometry">
            <mxPoint x="460" y="780" as="sourcePoint" />
            <mxPoint x="500" y="730" as="targetPoint" />
          </mxGeometry>
        </mxCell>
        <mxCell id="8peEFKOhnlwPGsy8Juil-296" value="Status" style="text;html=1;align=center;verticalAlign=middle;whiteSpace=wrap;rounded=0;" vertex="1" parent="1">
          <mxGeometry x="430" y="729" width="60" height="30" as="geometry" />
        </mxCell>
        <mxCell id="8peEFKOhnlwPGsy8Juil-297" value="" style="endArrow=classic;html=1;rounded=0;startArrow=oval;startFill=0;" edge="1" parent="1">
          <mxGeometry width="50" height="50" relative="1" as="geometry">
            <mxPoint x="520" y="730" as="sourcePoint" />
            <mxPoint x="490" y="790" as="targetPoint" />
          </mxGeometry>
        </mxCell>
        <mxCell id="8peEFKOhnlwPGsy8Juil-298" value="Payment ID" style="text;html=1;align=center;verticalAlign=middle;whiteSpace=wrap;rounded=0;" vertex="1" parent="1">
          <mxGeometry x="509" y="754" width="60" height="30" as="geometry" />
        </mxCell>
        <mxCell id="8peEFKOhnlwPGsy8Juil-299" value="" style="endArrow=classic;html=1;rounded=0;startArrow=oval;startFill=1;" edge="1" parent="1">
          <mxGeometry width="50" height="50" relative="1" as="geometry">
            <mxPoint x="640" y="780" as="sourcePoint" />
            <mxPoint x="600" y="730" as="targetPoint" />
          </mxGeometry>
        </mxCell>
        <mxCell id="8peEFKOhnlwPGsy8Juil-300" value="Validation" style="text;html=1;align=center;verticalAlign=middle;whiteSpace=wrap;rounded=0;" vertex="1" parent="1">
          <mxGeometry x="629" y="737" width="60" height="30" as="geometry" />
        </mxCell>
        <mxCell id="8peEFKOhnlwPGsy8Juil-301" value="Payment ID" style="text;html=1;align=center;verticalAlign=middle;whiteSpace=wrap;rounded=0;" vertex="1" parent="1">
          <mxGeometry x="469" y="575" width="60" height="30" as="geometry" />
        </mxCell>
        <mxCell id="8peEFKOhnlwPGsy8Juil-302" value="" style="endArrow=classic;html=1;rounded=0;startArrow=oval;startFill=0;" edge="1" parent="1">
          <mxGeometry width="50" height="50" relative="1" as="geometry">
            <mxPoint x="480" y="650" as="sourcePoint" />
            <mxPoint x="420" y="610" as="targetPoint" />
          </mxGeometry>
        </mxCell>
        <mxCell id="8peEFKOhnlwPGsy8Juil-303" value="Receipt Id" style="text;html=1;align=center;verticalAlign=middle;whiteSpace=wrap;rounded=0;" vertex="1" parent="1">
          <mxGeometry x="404.78" y="625.5" width="60" height="30" as="geometry" />
        </mxCell>
      </root>
    </mxGraphModel>
  </diagram>
</mxfile>
